<svg width="141" height="40" viewBox="0 0 141 40" fill="none" xmlns="http://www.w3.org/2000/svg">
<g clip-path="url(#clip0_3856_41)">
<path d="M22.4062 10.6649L17.7377 29.2514H14.9541L11.1719 13.823L7.47705 29.2514H4.75586L0 10.6649H2.53395L6.2787 26.1183L9.99853 10.6649H12.5075L16.2647 26.2681L19.9846 10.6649H22.4062Z" fill="white"/>
<path d="M30.8244 29.5759C28.6025 29.5759 26.8758 28.9518 25.6442 27.7036C24.4209 26.447 23.8092 24.6661 23.8092 22.361C23.8092 20.0892 24.4042 18.2834 25.5942 16.9436C26.7842 15.5955 28.3404 14.9214 30.2627 14.9214C31.1282 14.9214 31.8937 15.0463 32.5595 15.2959C33.2252 15.5456 33.8077 15.9367 34.307 16.4693C34.8063 17.0019 35.1891 17.6551 35.4554 18.429C35.7218 19.1946 35.8547 20.135 35.8547 21.2501V22.5233H26.1934C26.1934 24.146 26.6011 25.386 27.4167 26.2431C28.2322 27.1002 29.3598 27.5288 30.7994 27.5288C31.3154 27.5288 31.8189 27.4706 32.3098 27.354C32.8091 27.2375 33.2585 27.0878 33.6579 26.9047C34.0823 26.7133 34.4402 26.5302 34.7314 26.3554C35.0227 26.1724 35.2639 26.0018 35.4554 25.8437H35.5926V28.4026C35.3183 28.5108 34.9769 28.6481 34.5692 28.8145C34.1614 28.9726 33.7952 29.0974 33.4707 29.189C33.013 29.3138 32.5969 29.4095 32.2224 29.4761C31.8563 29.5427 31.3903 29.5759 30.8244 29.5759ZM33.5706 20.7258C33.5539 20.0934 33.479 19.5483 33.3459 19.0906C33.2127 18.6329 33.0213 18.246 32.7717 17.9297C32.4971 17.5802 32.1434 17.3139 31.7107 17.1308C31.2863 16.9478 30.7578 16.8562 30.1254 16.8562C29.5012 16.8562 28.9687 16.9519 28.5276 17.1433C28.0949 17.3264 27.6996 17.5969 27.3418 17.9547C26.9923 18.3208 26.726 18.7286 26.5429 19.178C26.3598 19.6191 26.2433 20.135 26.1934 20.7258H33.5706Z" fill="white"/>
<path d="M48.7793 22.2362C48.7793 20.5719 48.5256 19.3111 48.0179 18.454C47.5101 17.5885 46.6947 17.1558 45.5712 17.1558C44.9305 17.1558 44.2814 17.3056 43.6238 17.6052C42.9747 17.9048 42.3842 18.2834 41.8516 18.7411V26.7299C42.4424 27.0212 42.9666 27.2292 43.4242 27.354C43.8821 27.4706 44.3852 27.5288 44.9347 27.5288C46.133 27.5288 47.0733 27.1044 47.7558 26.2556C48.4382 25.4068 48.7793 24.067 48.7793 22.2362ZM51.201 22.049C51.201 24.3291 50.6473 26.164 49.5407 27.5538C48.434 28.9435 47.0484 29.6383 45.3838 29.6383C44.6266 29.6383 43.9775 29.5427 43.4368 29.3513C42.9042 29.1682 42.3758 28.9185 41.8516 28.6023L41.7017 29.2514H39.5049V9.82856H41.8516V16.7688C42.4424 16.2363 43.0831 15.7952 43.7737 15.4457C44.4645 15.0962 45.2466 14.9214 46.1203 14.9214C47.6933 14.9214 48.9333 15.5539 49.8403 16.8188C50.7473 18.0754 51.201 19.8188 51.201 22.049Z" fill="white"/>
<path d="M108.398 22.2362C108.398 20.5719 108.144 19.3111 107.637 18.454C107.129 17.5885 106.313 17.1558 105.19 17.1558C104.549 17.1558 103.9 17.3056 103.243 17.6052C102.594 17.9048 102.003 18.2834 101.47 18.7411V26.7299C102.061 27.0212 102.585 27.2292 103.043 27.354C103.501 27.4706 104.004 27.5288 104.553 27.5288C105.752 27.5288 106.692 27.1044 107.374 26.2556C108.057 25.4068 108.398 24.067 108.398 22.2362ZM110.82 22.049C110.82 24.3291 110.266 26.164 109.16 27.5538C108.053 28.9435 106.667 29.6383 105.003 29.6383C104.246 29.6383 103.597 29.5427 103.055 29.3513C102.523 29.1682 101.994 28.9185 101.47 28.6023L101.32 29.2514H99.1235V9.82856H101.47V16.7688C102.061 16.2363 102.702 15.7952 103.393 15.4457C104.083 15.0962 104.866 14.9214 105.739 14.9214C107.312 14.9214 108.552 15.5539 109.459 16.8188C110.366 18.0754 110.82 19.8188 110.82 22.049Z" fill="white"/>
<path d="M120.586 29.5759C118.364 29.5759 116.638 28.9518 115.406 27.7036C114.183 26.447 113.571 24.6661 113.571 22.361C113.571 20.0892 114.166 18.2834 115.356 16.9436C116.546 15.5955 118.102 14.9214 120.024 14.9214C120.89 14.9214 121.655 15.0463 122.321 15.2959C122.987 15.5456 123.57 15.9367 124.069 16.4693C124.568 17.0019 124.951 17.6551 125.217 18.429C125.484 19.1946 125.617 20.135 125.617 21.2501V22.5233H115.955C115.955 24.146 116.363 25.386 117.178 26.2431C117.994 27.1002 119.121 27.5288 120.561 27.5288C121.077 27.5288 121.58 27.4706 122.072 27.354C122.571 27.2375 123.02 27.0878 123.42 26.9047C123.844 26.7133 124.202 26.5302 124.493 26.3554C124.784 26.1724 125.026 26.0018 125.217 25.8437H125.354V28.4026C125.08 28.5108 124.739 28.6481 124.331 28.8145C123.923 28.9726 123.557 29.0974 123.232 29.189C122.775 29.3138 122.359 29.4095 121.984 29.4761C121.618 29.5427 121.152 29.5759 120.586 29.5759ZM123.332 20.7258C123.315 20.0934 123.241 19.5483 123.107 19.0906C122.974 18.6329 122.783 18.246 122.533 17.9297C122.259 17.5802 121.905 17.3139 121.472 17.1308C121.048 16.9478 120.519 16.8562 119.887 16.8562C119.263 16.8562 118.73 16.9519 118.289 17.1433C117.857 17.3264 117.461 17.5969 117.104 17.9547C116.754 18.3208 116.488 18.7286 116.305 19.178C116.121 19.6191 116.005 20.135 115.955 20.7258H123.332Z" fill="white"/>
<path d="M135.32 29.5759C133.099 29.5759 131.372 28.9518 130.14 27.7036C128.917 26.447 128.305 24.6661 128.305 22.361C128.305 20.0892 128.9 18.2834 130.09 16.9436C131.28 15.5955 132.837 14.9214 134.759 14.9214C135.624 14.9214 136.39 15.0463 137.055 15.2959C137.721 15.5456 138.304 15.9367 138.803 16.4693C139.302 17.0019 139.685 17.6551 139.952 18.429C140.218 19.1946 140.351 20.135 140.351 21.2501V22.5233H130.69C130.69 24.146 131.097 25.386 131.913 26.2431C132.728 27.1002 133.856 27.5288 135.295 27.5288C135.811 27.5288 136.315 27.4706 136.806 27.354C137.305 27.2375 137.754 27.0878 138.154 26.9047C138.578 26.7133 138.936 26.5302 139.227 26.3554C139.519 26.1724 139.76 26.0018 139.952 25.8437H140.089V28.4026C139.814 28.5108 139.473 28.6481 139.065 28.8145C138.658 28.9726 138.291 29.0974 137.967 29.189C137.509 29.3138 137.093 29.4095 136.719 29.4761C136.352 29.5427 135.886 29.5759 135.32 29.5759ZM138.067 20.7258C138.05 20.0934 137.975 19.5483 137.842 19.0906C137.709 18.6329 137.517 18.246 137.268 17.9297C136.993 17.5802 136.639 17.3139 136.207 17.1308C135.782 16.9478 135.254 16.8562 134.621 16.8562C133.997 16.8562 133.465 16.9519 133.024 17.1433C132.591 17.3264 132.196 17.5969 131.838 17.9547C131.488 18.3208 131.222 18.7286 131.039 19.178C130.856 19.6191 130.739 20.135 130.69 20.7258H138.067Z" fill="white"/>
<path d="M57.7684 9.83239L74.4835 0L91.6905 9.83239V29.4153L74.4835 39.9032L57.7684 29.4153V9.83239Z" fill="#FCC900"/>
<path d="M74.1783 16.2685C74.1783 17.2418 70.5902 17.9908 68.5341 17.9908C66.478 17.9908 62.4495 16.2685 63.2902 12.944C64.4109 10.0601 68.4941 10.9413 69.1344 11.1416C71.3762 11.6623 74.1783 15.2952 74.1783 16.2685Z" fill="#151616" fill-opacity="0.95"/>
<path d="M79.7025 12.7437C79.4221 13.7451 77.7958 16.0629 76.5091 16.0629C75.2225 16.0629 74.9333 14.0636 75.4593 11.9827C76.1607 10.1776 77.8611 10.1002 78.2614 10.1803C79.1021 10.3005 79.9828 11.5421 79.7025 12.7437Z" fill="#151616" fill-opacity="0.95"/>
<path d="M83.0652 21.1951C84.688 24.9601 81.9442 27.7238 81.9442 27.7238C81.9442 27.7238 79.5431 27.2029 77.6214 22.7972C76.3982 19.9934 77.621 17.5502 77.621 17.5502C77.621 17.5502 81.3214 17.1496 83.0652 21.1951Z" fill="#151616" fill-opacity="0.95"/>
<path d="M68.1737 27.6837C68.9344 29.1257 74.0109 29.6063 74.0109 29.6063C74.0109 29.6063 72.4169 27.6837 71.7365 25.7612C70.7158 22.8775 70.7758 21.7558 70.7758 21.7558C70.7758 21.7558 67.4133 26.2418 68.1737 27.6837Z" fill="#151616" fill-opacity="0.95"/>
<path d="M71.9764 20.3539C71.9764 20.3539 72.021 23.2484 72.6971 25.1604C73.4357 27.2494 75.8596 29.6864 75.8596 29.6864C75.8596 29.6864 77.6919 29.8568 78.7417 29.6063C79.6596 29.3872 80.7831 28.6851 80.7831 28.6851C80.7831 28.6851 78.021 26.2018 76.8522 23.1576C75.7554 20.302 76.26 17.6303 76.26 17.6303C76.26 17.6303 75.4192 17.6303 74.1782 18.3512C73.1733 18.9351 71.9764 20.3539 71.9764 20.3539Z" fill="#151616" fill-opacity="0.95"/>
</g>
<defs>
<clipPath id="clip0_3856_41">
<rect width="140.351" height="40" fill="white"/>
</clipPath>
</defs>
</svg>
